<?xml version="1.0" encoding="UTF-8" standalone="no"?>
<!DOCTYPE svg PUBLIC "-//W3C//DTD SVG 1.1//EN" "http://www.w3.org/Graphics/SVG/1.1/DTD/svg11.dtd">
<svg width="100%" height="100%" viewBox="0 0 320 100" version="1.1" xmlns="http://www.w3.org/2000/svg" xmlns:xlink="http://www.w3.org/1999/xlink" xml:space="preserve" xmlns:serif="http://www.serif.com/" style="fill-rule:evenodd;clip-rule:evenodd;stroke-linejoin:round;stroke-miterlimit:2;">
    <g id="Artboard1" transform="matrix(2.69596,0,0,2.82621,0,0.541266)">
        <g>
            <rect x="0" y="0" width="118.696" height="35" style="fill:none;"/>
            <g transform="matrix(0.0548394,0,0,0.0357648,8.7213,6.38253)">
                <g transform="matrix(6.53846,0,0,9.5636,-1484.31,-3862.18)">
                    <path d="M285.404,450.537C289.214,450.537 292.321,451.995 294.723,454.913L294.672,454.347L294.672,453.78C294.638,453.575 294.62,453.454 294.62,453.42C294.552,452.665 294.517,452.322 294.517,452.39C294.517,451.223 295.067,450.64 296.165,450.64C297.332,450.64 297.916,451.36 297.916,452.802C297.916,453.077 297.847,453.901 297.71,455.274C297.538,456.99 297.452,458.174 297.452,458.827C297.452,459.753 297.504,460.697 297.607,461.658L297.813,463.615L297.813,464.13C297.813,465.675 297.195,466.447 295.959,466.447C294.62,466.447 293.968,465.709 294.003,464.233L294.054,462.379C294.123,459.908 293.35,457.9 291.737,456.355C290.124,454.81 288.013,454.038 285.404,454.038C282.005,454.038 279.345,455.342 277.423,457.951C275.5,460.56 274.539,464.164 274.539,468.764C274.539,473.467 275.526,477.131 277.5,479.757C279.474,482.383 282.228,483.696 285.764,483.696C287.686,483.696 289.411,483.233 290.939,482.306C292.466,481.379 293.539,480.161 294.157,478.65C294.569,477.655 294.775,476.316 294.775,474.634C294.775,473.055 295.427,472.265 296.732,472.265C298.139,472.265 298.843,473.055 298.843,474.634C298.843,478.307 297.573,481.311 295.032,483.645C292.492,485.979 289.214,487.146 285.198,487.146C280.564,487.146 276.865,485.516 274.102,482.255C271.338,478.994 269.957,474.651 269.957,469.228C269.957,463.632 271.373,459.118 274.205,455.686C277.037,452.253 280.77,450.537 285.404,450.537Z" style="fill:rgb(10,7,5);fill-rule:nonzero;stroke:white;stroke-width:1.03px;"/>
                </g>
                <g transform="matrix(6.53846,0,0,9.5636,-1484.31,-3862.18)">
                    <path d="M317.585,487.146C313.02,487.146 309.407,485.498 306.746,482.203C304.086,478.908 302.756,474.445 302.756,468.816C302.756,463.117 304.095,458.646 306.772,455.402C309.45,452.159 313.14,450.537 317.843,450.537C322.339,450.537 325.918,452.116 328.578,455.274C331.239,458.432 332.569,462.705 332.569,468.095C332.569,473.93 331.221,478.564 328.527,481.997C325.832,485.43 322.185,487.146 317.585,487.146ZM317.688,454.244C314.393,454.244 311.835,455.514 310.016,458.054C308.197,460.594 307.287,464.164 307.287,468.764C307.287,473.433 308.197,477.045 310.016,479.603C311.835,482.16 314.376,483.439 317.637,483.439C320.829,483.439 323.361,482.109 325.231,479.448C327.102,476.788 328.038,473.175 328.038,468.61C328.038,464.01 327.145,460.466 325.36,457.977C323.575,455.488 321.018,454.244 317.688,454.244Z" style="fill:rgb(10,7,5);fill-rule:nonzero;stroke:white;stroke-width:1.03px;"/>
                </g>
                <g transform="matrix(6.53846,0,0,9.5636,-1484.31,-3862.18)">
                    <path d="M342.146,471.03L342.146,466.705L342.094,458.518C342.094,455.977 341.219,454.707 339.468,454.707C339.022,454.707 338.679,454.742 338.439,454.81C337.889,454.913 337.443,454.965 337.1,454.965C336.654,454.965 336.276,454.802 335.967,454.476C335.658,454.149 335.504,453.746 335.504,453.266C335.504,452.064 336.225,451.463 337.666,451.463C337.838,451.463 338.095,451.481 338.439,451.515L341.991,451.875C343.33,452.013 344.823,452.081 346.471,452.081C347.364,452.081 349.286,452.03 352.238,451.927L358.159,451.721C358.949,451.687 359.876,451.635 360.94,451.566C361.42,451.532 361.935,451.515 362.485,451.515C364.304,451.515 365.213,452.322 365.213,453.935C365.213,454.553 365.128,455.497 364.956,456.767C364.784,458.037 364.699,458.998 364.699,459.65C364.699,460.2 364.733,460.886 364.802,461.71C364.87,462.534 364.905,463.289 364.905,463.976C364.905,465.383 364.287,466.087 363.051,466.087C361.781,466.087 361.146,465.28 361.146,463.667C361.146,463.186 361.172,462.448 361.223,461.453C361.274,460.457 361.3,459.719 361.3,459.238C361.3,457.419 360.785,456.269 359.756,455.789C358.726,455.308 356.289,455.068 352.444,455.068C349.183,455.068 347.329,455.36 346.883,455.943C346.54,456.389 346.368,457.968 346.368,460.68L346.368,464.49C346.368,465.452 346.497,466.044 346.754,466.267C347.012,466.49 347.724,466.602 348.891,466.602L350.59,466.602C352.822,466.602 353.937,465.778 353.937,464.13C353.937,463.752 353.894,463.238 353.808,462.585C353.723,461.933 353.68,461.435 353.68,461.092C353.68,459.788 354.298,459.135 355.533,459.135C356.7,459.135 357.284,459.891 357.284,461.401C357.284,461.607 357.25,462.019 357.181,462.637L356.872,465.417C356.735,466.653 356.666,467.58 356.666,468.198C356.666,469.605 356.821,471.39 357.13,473.553C357.233,474.274 357.284,474.96 357.284,475.612C357.284,476.951 356.666,477.62 355.43,477.62C354.263,477.62 353.68,476.9 353.68,475.458C353.68,475.115 353.705,474.6 353.757,473.913C353.808,473.227 353.834,472.712 353.834,472.368C353.834,471.304 353.542,470.618 352.959,470.309C352.581,470.069 351.792,469.948 350.59,469.948L348.994,469.948C347.793,469.948 347.055,470.086 346.78,470.36C346.505,470.635 346.368,471.39 346.368,472.626L346.368,478.753C346.368,480.367 346.548,481.456 346.909,482.023C347.269,482.589 347.947,482.872 348.943,482.872C349.183,482.872 349.56,482.855 350.075,482.821C350.59,482.787 350.968,482.769 351.208,482.769C352.787,482.769 353.577,483.353 353.577,484.52C353.577,485.001 353.396,485.413 353.036,485.756C352.676,486.099 352.238,486.271 351.723,486.271C351.174,486.271 350.367,486.185 349.303,486.013C347.793,485.773 346.076,485.653 344.154,485.653C342.918,485.653 341.597,485.756 340.189,485.962L338.439,486.219C338.336,486.219 338.215,486.236 338.078,486.271L337.769,486.271C336.259,486.271 335.504,485.653 335.504,484.417C335.504,483.319 336.036,482.769 337.1,482.769C337.237,482.769 337.683,482.804 338.439,482.872C338.816,482.975 339.177,483.027 339.52,483.027C340.447,483.027 341.09,482.744 341.451,482.177C341.811,481.611 342.009,480.607 342.043,479.165L342.146,471.03Z" style="fill:rgb(10,7,5);fill-rule:nonzero;stroke:white;stroke-width:1.03px;"/>
                </g>
                <g transform="matrix(6.53846,0,0,9.5636,-1484.31,-3862.18)">
                    <path d="M374.018,471.03L374.018,466.705L373.967,458.518C373.967,455.977 373.091,454.707 371.341,454.707C370.895,454.707 370.551,454.742 370.311,454.81C369.762,454.913 369.316,454.965 368.972,454.965C368.526,454.965 368.148,454.802 367.839,454.476C367.531,454.149 367.376,453.746 367.376,453.266C367.376,452.064 368.097,451.463 369.539,451.463C369.71,451.463 369.968,451.481 370.311,451.515L373.864,451.875C375.203,452.013 376.696,452.081 378.343,452.081C379.236,452.081 381.158,452.03 384.11,451.927L390.032,451.721C390.821,451.687 391.748,451.635 392.812,451.566C393.293,451.532 393.808,451.515 394.357,451.515C396.176,451.515 397.086,452.322 397.086,453.935C397.086,454.553 397,455.497 396.828,456.767C396.657,458.037 396.571,458.998 396.571,459.65C396.571,460.2 396.605,460.886 396.674,461.71C396.743,462.534 396.777,463.289 396.777,463.976C396.777,465.383 396.159,466.087 394.923,466.087C393.653,466.087 393.018,465.28 393.018,463.667C393.018,463.186 393.044,462.448 393.095,461.453C393.147,460.457 393.173,459.719 393.173,459.238C393.173,457.419 392.658,456.269 391.628,455.789C390.598,455.308 388.161,455.068 384.316,455.068C381.055,455.068 379.202,455.36 378.755,455.943C378.412,456.389 378.241,457.968 378.241,460.68L378.241,464.49C378.241,465.452 378.369,466.044 378.627,466.267C378.884,466.49 379.596,466.602 380.764,466.602L382.463,466.602C384.694,466.602 385.81,465.778 385.81,464.13C385.81,463.752 385.767,463.238 385.681,462.585C385.595,461.933 385.552,461.435 385.552,461.092C385.552,459.788 386.17,459.135 387.406,459.135C388.573,459.135 389.156,459.891 389.156,461.401C389.156,461.607 389.122,462.019 389.053,462.637L388.745,465.417C388.607,466.653 388.539,467.58 388.539,468.198C388.539,469.605 388.693,471.39 389.002,473.553C389.105,474.274 389.156,474.96 389.156,475.612C389.156,476.951 388.539,477.62 387.303,477.62C386.136,477.62 385.552,476.9 385.552,475.458C385.552,475.115 385.578,474.6 385.629,473.913C385.681,473.227 385.707,472.712 385.707,472.368C385.707,471.304 385.415,470.618 384.831,470.309C384.454,470.069 383.664,469.948 382.463,469.948L380.867,469.948C379.665,469.948 378.927,470.086 378.652,470.36C378.378,470.635 378.241,471.39 378.241,472.626L378.241,478.753C378.241,480.367 378.421,481.456 378.781,482.023C379.142,482.589 379.82,482.872 380.815,482.872C381.055,482.872 381.433,482.855 381.948,482.821C382.463,482.787 382.84,482.769 383.081,482.769C384.66,482.769 385.449,483.353 385.449,484.52C385.449,485.001 385.269,485.413 384.908,485.756C384.548,486.099 384.11,486.271 383.595,486.271C383.046,486.271 382.24,486.185 381.175,486.013C379.665,485.773 377.949,485.653 376.026,485.653C374.791,485.653 373.469,485.756 372.062,485.962L370.311,486.219C370.208,486.219 370.088,486.236 369.951,486.271L369.642,486.271C368.131,486.271 367.376,485.653 367.376,484.417C367.376,483.319 367.908,482.769 368.972,482.769C369.11,482.769 369.556,482.804 370.311,482.872C370.689,482.975 371.049,483.027 371.392,483.027C372.319,483.027 372.963,482.744 373.323,482.177C373.684,481.611 373.881,480.607 373.915,479.165L374.018,471.03Z" style="fill:rgb(10,7,5);fill-rule:nonzero;stroke:white;stroke-width:1.03px;"/>
                </g>
                <g transform="matrix(6.53846,0,0,9.5636,-1484.31,-3862.18)">
                    <path d="M405.942,458.518C405.942,455.977 405.067,454.707 403.316,454.707C402.836,454.707 402.475,454.742 402.235,454.81C401.686,454.913 401.222,454.965 400.845,454.965C400.398,454.965 400.021,454.802 399.712,454.476C399.403,454.149 399.249,453.746 399.249,453.266C399.249,452.064 399.969,451.463 401.411,451.463C401.445,451.463 401.703,451.481 402.183,451.515C407.332,451.858 409.735,452.03 409.392,452.03L409.907,452.03L422.316,451.669C422.556,451.669 423.449,451.618 424.994,451.515C425.543,451.481 426.041,451.463 426.487,451.463C428.272,451.463 429.164,452.253 429.164,453.832C429.164,454.107 429.096,454.982 428.958,456.458C428.855,457.556 428.804,458.569 428.804,459.496C428.804,460.697 428.838,461.538 428.907,462.019C429.044,463.014 429.113,463.752 429.113,464.233C429.113,465.537 428.495,466.19 427.259,466.19C426.023,466.19 425.406,465.28 425.406,463.461L425.406,460.783C425.406,457.9 424.805,456.201 423.603,455.686C422.711,455.308 420.411,455.119 416.704,455.119C414.266,455.119 412.825,455.171 412.379,455.274C410.902,455.651 410.164,456.681 410.164,458.363L410.164,461.813C410.13,462.294 410.113,462.637 410.113,462.843L410.113,463.512C410.113,464.885 410.422,465.675 411.04,465.881C411.28,465.949 411.692,465.984 412.276,465.984L414.387,465.984C416.549,465.984 417.631,465.246 417.631,463.77C417.631,463.358 417.579,462.826 417.476,462.173C417.373,461.521 417.322,460.938 417.322,460.423C417.322,459.05 417.939,458.363 419.175,458.363C420.411,458.363 421.029,459.101 421.029,460.577C421.029,460.852 420.909,461.916 420.668,463.77C420.462,465.349 420.359,466.739 420.359,467.94C420.359,468.627 420.428,469.845 420.565,471.596C420.6,471.871 420.686,472.471 420.823,473.398C420.926,474.153 420.977,474.754 420.977,475.2C420.977,476.436 420.359,477.054 419.124,477.054C417.922,477.054 417.322,476.333 417.322,474.891C417.322,474.514 417.364,473.965 417.45,473.244C417.536,472.523 417.579,471.974 417.579,471.596C417.579,470.12 416.601,469.382 414.644,469.382L412.327,469.382C411.332,469.382 410.722,469.554 410.499,469.897C410.276,470.24 410.164,470.978 410.164,472.111L410.164,475.303C410.164,475.853 410.182,476.591 410.216,477.517C410.25,478.65 410.267,479.405 410.267,479.783C410.302,481.156 410.576,482.014 411.091,482.358C411.469,482.598 412.361,482.718 413.769,482.718L420.771,482.718C422.797,482.718 424.187,482.418 424.942,481.817C425.697,481.216 426.075,480.092 426.075,478.444C426.075,477.929 426.049,477.166 425.998,476.153C425.946,475.14 425.92,474.377 425.92,473.862C425.92,472.317 426.538,471.545 427.774,471.545C429.078,471.545 429.731,472.334 429.731,473.913C429.731,474.531 429.696,475.475 429.628,476.745C429.559,478.015 429.525,478.959 429.525,479.577C429.525,480.058 429.55,480.77 429.602,481.714C429.653,482.658 429.679,483.37 429.679,483.851C429.679,485.464 428.89,486.271 427.311,486.271C426.933,486.271 426.332,486.236 425.509,486.168C425.097,486.133 424.341,486.116 423.243,486.116C423.483,486.116 422.144,486.082 419.227,486.013C416.309,485.945 413.786,485.91 411.658,485.91C408.431,485.91 405.273,486.013 402.183,486.219C402.046,486.219 401.892,486.236 401.72,486.271L401.411,486.271C399.969,486.271 399.249,485.653 399.249,484.417C399.249,483.319 399.781,482.769 400.845,482.769C401.016,482.769 401.48,482.804 402.235,482.872C402.613,482.975 402.973,483.027 403.316,483.027C405.067,483.027 405.942,481.74 405.942,479.165L405.942,458.518Z" style="fill:rgb(10,7,5);fill-rule:nonzero;stroke:white;stroke-width:1.03px;"/>
                </g>
                <g transform="matrix(6.53846,0,0,9.5636,-1484.31,-3862.18)">
                    <path d="M440.595,458.518C440.595,455.977 439.72,454.707 437.969,454.707C437.489,454.707 437.128,454.742 436.888,454.81C436.339,454.913 435.875,454.965 435.498,454.965C435.051,454.965 434.674,454.802 434.365,454.476C434.056,454.149 433.901,453.746 433.901,453.266C433.901,452.064 434.622,451.463 436.064,451.463C436.098,451.463 436.356,451.481 436.836,451.515C441.985,451.858 444.388,452.03 444.045,452.03L444.56,452.03L456.969,451.669C457.209,451.669 458.102,451.618 459.647,451.515C460.196,451.481 460.693,451.463 461.14,451.463C462.925,451.463 463.817,452.253 463.817,453.832C463.817,454.107 463.749,454.982 463.611,456.458C463.508,457.556 463.457,458.569 463.457,459.496C463.457,460.697 463.491,461.538 463.56,462.019C463.697,463.014 463.766,463.752 463.766,464.233C463.766,465.537 463.148,466.19 461.912,466.19C460.676,466.19 460.058,465.28 460.058,463.461L460.058,460.783C460.058,457.9 459.458,456.201 458.256,455.686C457.364,455.308 455.064,455.119 451.357,455.119C448.919,455.119 447.478,455.171 447.031,455.274C445.555,455.651 444.817,456.681 444.817,458.363L444.817,461.813C444.783,462.294 444.766,462.637 444.766,462.843L444.766,463.512C444.766,464.885 445.075,465.675 445.693,465.881C445.933,465.949 446.345,465.984 446.928,465.984L449.04,465.984C451.202,465.984 452.283,465.246 452.283,463.77C452.283,463.358 452.232,462.826 452.129,462.173C452.026,461.521 451.974,460.938 451.974,460.423C451.974,459.05 452.592,458.363 453.828,458.363C455.064,458.363 455.682,459.101 455.682,460.577C455.682,460.852 455.562,461.916 455.321,463.77C455.115,465.349 455.012,466.739 455.012,467.94C455.012,468.627 455.081,469.845 455.218,471.596C455.253,471.871 455.338,472.471 455.476,473.398C455.579,474.153 455.63,474.754 455.63,475.2C455.63,476.436 455.012,477.054 453.777,477.054C452.575,477.054 451.974,476.333 451.974,474.891C451.974,474.514 452.017,473.965 452.103,473.244C452.189,472.523 452.232,471.974 452.232,471.596C452.232,470.12 451.254,469.382 449.297,469.382L446.98,469.382C445.984,469.382 445.375,469.554 445.152,469.897C444.929,470.24 444.817,470.978 444.817,472.111L444.817,475.303C444.817,475.853 444.834,476.591 444.869,477.517C444.903,478.65 444.92,479.405 444.92,479.783C444.955,481.156 445.229,482.014 445.744,482.358C446.122,482.598 447.014,482.718 448.422,482.718L455.424,482.718C457.45,482.718 458.84,482.418 459.595,481.817C460.35,481.216 460.728,480.092 460.728,478.444C460.728,477.929 460.702,477.166 460.651,476.153C460.599,475.14 460.573,474.377 460.573,473.862C460.573,472.317 461.191,471.545 462.427,471.545C463.731,471.545 464.384,472.334 464.384,473.913C464.384,474.531 464.349,475.475 464.281,476.745C464.212,478.015 464.178,478.959 464.178,479.577C464.178,480.058 464.203,480.77 464.255,481.714C464.306,482.658 464.332,483.37 464.332,483.851C464.332,485.464 463.543,486.271 461.964,486.271C461.586,486.271 460.985,486.236 460.161,486.168C459.749,486.133 458.994,486.116 457.896,486.116C458.136,486.116 456.797,486.082 453.88,486.013C450.962,485.945 448.439,485.91 446.311,485.91C443.084,485.91 439.926,486.013 436.836,486.219C436.699,486.219 436.545,486.236 436.373,486.271L436.064,486.271C434.622,486.271 433.901,485.653 433.901,484.417C433.901,483.319 434.433,482.769 435.498,482.769C435.669,482.769 436.133,482.804 436.888,482.872C437.265,482.975 437.626,483.027 437.969,483.027C439.72,483.027 440.595,481.74 440.595,479.165L440.595,458.518Z" style="fill:rgb(10,7,5);fill-rule:nonzero;stroke:white;stroke-width:1.03px;"/>
                </g>
            </g>
            <g transform="matrix(0.0930418,0,0,0.0595445,-26.5968,-26.4927)">
                <g transform="matrix(3.85381,0,0,5.74428,-764.82,-2139.67)">
                    <path d="M291.711,450.305C296.757,450.305 300.876,451.927 304.069,455.171L304.069,454.089C304.069,452.081 304.867,451.077 306.463,451.077C308.214,451.077 309.089,452.184 309.089,454.398L309.089,454.862C309.089,454.965 309.012,455.737 308.857,457.179C308.703,458.621 308.626,460.345 308.626,462.354C308.626,462.611 308.677,463.435 308.78,464.825L309.012,467.915C309.063,468.172 309.089,468.532 309.089,468.996C309.089,471.467 308.137,472.703 306.231,472.703C304.223,472.703 303.219,471.673 303.219,469.614L303.219,469.228L303.374,467.142C303.425,466.421 303.451,465.855 303.451,465.443C303.451,462.354 302.408,459.934 300.323,458.183C298.238,456.432 295.367,455.557 291.711,455.557C288.364,455.557 285.7,456.381 283.717,458.028C281.735,459.676 280.744,461.89 280.744,464.671C280.744,467.915 282.211,470.309 285.146,471.854C286.794,472.677 289.677,473.424 293.797,474.093C299.924,475.072 304.12,476.41 306.386,478.11C309.784,480.633 311.483,484.211 311.483,488.845C311.483,493.685 309.746,497.624 306.27,500.662C302.794,503.7 298.302,505.219 292.793,505.219C286.923,505.219 282.057,503.366 278.195,499.658C278.195,499.864 278.221,500.096 278.272,500.353L278.272,500.817C278.375,501.641 278.427,502.181 278.427,502.439C278.427,504.344 277.526,505.296 275.724,505.296C273.767,505.296 272.789,504.215 272.789,502.053C272.789,501.795 272.814,501.589 272.866,501.435L273.175,497.418C273.329,495.41 273.406,494.123 273.406,493.557C273.406,492.527 273.278,490.982 273.02,488.923C272.763,486.863 272.634,485.318 272.634,484.288C272.634,481.971 273.612,480.813 275.569,480.813C277.577,480.813 278.581,481.971 278.581,484.288L278.581,485.679C278.53,486.091 278.504,486.683 278.504,487.455C278.504,491.317 279.74,494.38 282.211,496.646C284.683,498.912 288.03,500.044 292.252,500.044C296.165,500.044 299.28,499.118 301.597,497.264C303.914,495.41 305.073,492.887 305.073,489.695C305.073,484.803 301.984,481.817 295.805,480.736L291.402,479.963C287.026,479.191 283.627,478.29 281.207,477.26C278.993,476.282 277.23,474.75 275.917,472.664C274.604,470.579 273.947,468.223 273.947,465.597C273.947,461.066 275.595,457.385 278.89,454.553C282.186,451.721 286.459,450.305 291.711,450.305Z" style="fill:rgb(10,7,5);fill-rule:nonzero;stroke:white;stroke-width:1.03px;"/>
                </g>
                <g transform="matrix(3.85381,0,0,5.74428,-764.82,-2139.67)">
                    <path d="M340.987,505.219C334.139,505.219 328.72,502.748 324.729,497.805C320.739,492.862 318.744,486.168 318.744,477.723C318.744,469.176 320.752,462.469 324.768,457.604C328.784,452.738 334.319,450.305 341.374,450.305C348.119,450.305 353.487,452.673 357.477,457.411C361.468,462.148 363.463,468.558 363.463,476.642C363.463,485.395 361.442,492.347 357.4,497.496C353.358,502.645 347.887,505.219 340.987,505.219ZM341.142,455.866C336.199,455.866 332.363,457.771 329.634,461.581C326.905,465.392 325.54,470.746 325.54,477.646C325.54,484.649 326.905,490.068 329.634,493.904C332.363,497.74 336.173,499.658 341.065,499.658C345.853,499.658 349.651,497.663 352.457,493.672C355.263,489.682 356.666,484.263 356.666,477.414C356.666,470.515 355.327,465.198 352.65,461.465C349.972,457.732 346.136,455.866 341.142,455.866Z" style="fill-rule:nonzero;stroke:white;stroke-width:1.03px;"/>
                </g>
                <g transform="matrix(3.85381,0,0,5.74428,-764.82,-2139.67)">
                    <path d="M392.503,450.305C398.219,450.305 402.879,452.493 406.483,456.87L406.406,456.02L406.406,455.171C406.354,454.862 406.328,454.682 406.328,454.63C406.225,453.497 406.174,452.982 406.174,453.085C406.174,451.335 406.998,450.459 408.645,450.459C410.396,450.459 411.271,451.541 411.271,453.703C411.271,454.115 411.168,455.351 410.963,457.411C410.705,459.985 410.576,461.761 410.576,462.74C410.576,464.13 410.654,465.546 410.808,466.988L411.117,469.923L411.117,470.695C411.117,473.012 410.19,474.171 408.337,474.171C406.328,474.171 405.35,473.064 405.402,470.849L405.479,468.069C405.582,464.362 404.423,461.35 402.003,459.032C399.583,456.715 396.417,455.557 392.503,455.557C387.406,455.557 383.415,457.514 380.532,461.427C377.648,465.34 376.207,470.746 376.207,477.646C376.207,484.7 377.687,490.197 380.648,494.136C383.608,498.075 387.74,500.044 393.044,500.044C395.927,500.044 398.515,499.349 400.806,497.959C403.097,496.569 404.706,494.741 405.633,492.475C406.251,490.982 406.56,488.974 406.56,486.451C406.56,484.082 407.538,482.898 409.495,482.898C411.606,482.898 412.662,484.082 412.662,486.451C412.662,491.96 410.757,496.466 406.946,499.967C403.136,503.469 398.219,505.219 392.194,505.219C385.243,505.219 379.695,502.773 375.55,497.882C371.405,492.99 369.333,486.477 369.333,478.341C369.333,469.948 371.457,463.177 375.705,458.028C379.953,452.879 385.552,450.305 392.503,450.305Z" style="fill:rgb(10,7,5);fill-rule:nonzero;stroke:white;stroke-width:1.03px;"/>
                </g>
                <g transform="matrix(3.85381,0,0,5.74428,-764.82,-2139.67)">
                    <path d="M427.105,462.276C427.105,458.466 425.792,456.561 423.166,456.561C422.445,456.561 421.904,456.612 421.544,456.715C420.72,456.87 420.025,456.947 419.458,456.947C418.789,456.947 418.223,456.703 417.759,456.213C417.296,455.724 417.064,455.119 417.064,454.398C417.064,452.596 418.197,451.695 420.462,451.695C420.771,451.695 421.132,451.721 421.544,451.772L425.637,452.313C427.182,452.519 428.778,452.622 430.426,452.622C432.022,452.622 433.773,452.493 435.678,452.236L439.153,451.772C439.565,451.721 439.926,451.695 440.235,451.695C442.5,451.695 443.633,452.596 443.633,454.398C443.633,455.119 443.401,455.724 442.938,456.213C442.475,456.703 441.908,456.947 441.239,456.947C440.724,456.947 440.029,456.87 439.153,456.715C438.793,456.612 438.252,456.561 437.531,456.561C434.905,456.561 433.592,458.466 433.592,462.276L433.592,493.248C433.592,497.109 434.905,499.04 437.531,499.04C437.943,499.04 438.484,498.989 439.153,498.886C440.132,498.731 440.827,498.654 441.239,498.654C442.835,498.654 443.633,499.478 443.633,501.126C443.633,502.979 442.5,503.906 440.235,503.906L439.694,503.906C439.488,503.855 439.308,503.829 439.153,503.829L435.137,503.211C433.798,503.005 432.382,502.902 430.889,502.902C428.727,502.902 426.796,503.031 425.097,503.288L421.544,503.829C421.441,503.829 421.261,503.855 421.003,503.906L420.385,503.906C418.171,503.906 417.064,502.979 417.064,501.126C417.064,499.478 417.862,498.654 419.458,498.654C419.716,498.654 420.411,498.706 421.544,498.809C422.11,498.963 422.651,499.04 423.166,499.04C425.792,499.04 427.105,497.109 427.105,493.248L427.105,462.276Z" style="fill:rgb(10,7,5);fill-rule:nonzero;stroke:white;stroke-width:1.03px;"/>
                </g>
                <g transform="matrix(3.85381,0,0,5.74428,-764.82,-2139.67)">
                    <path d="M456.609,462.276C456.609,458.466 455.296,456.561 452.67,456.561C451.949,456.561 451.408,456.612 451.048,456.715C450.224,456.87 449.529,456.947 448.962,456.947C448.293,456.947 447.727,456.703 447.263,456.213C446.8,455.724 446.568,455.119 446.568,454.398C446.568,452.596 447.649,451.695 449.812,451.695C449.863,451.695 450.25,451.721 450.97,451.772C458.694,452.287 462.298,452.545 461.783,452.545L462.556,452.545L481.169,452.004C481.53,452.004 482.869,451.927 485.186,451.772C486.009,451.721 486.756,451.695 487.425,451.695C490.103,451.695 491.442,452.879 491.442,455.248C491.442,455.66 491.339,456.973 491.133,459.187C490.978,460.835 490.901,462.354 490.901,463.744C490.901,465.546 490.953,466.807 491.056,467.528C491.261,469.022 491.364,470.129 491.364,470.849C491.364,472.806 490.438,473.784 488.584,473.784C486.73,473.784 485.804,472.42 485.804,469.691L485.804,465.675C485.804,461.35 484.902,458.801 483.1,458.028C481.762,457.462 478.312,457.179 472.751,457.179C469.095,457.179 466.932,457.256 466.263,457.411C464.049,457.977 462.942,459.522 462.942,462.045L462.942,467.219C462.89,467.94 462.865,468.455 462.865,468.764L462.865,469.768C462.865,471.828 463.328,473.012 464.255,473.321C464.615,473.424 465.233,473.475 466.109,473.475L469.275,473.475C472.519,473.475 474.141,472.368 474.141,470.154C474.141,469.536 474.064,468.738 473.909,467.76C473.755,466.782 473.678,465.906 473.678,465.134C473.678,463.074 474.604,462.045 476.458,462.045C478.312,462.045 479.239,463.152 479.239,465.366C479.239,465.778 479.058,467.374 478.698,470.154C478.389,472.523 478.234,474.608 478.234,476.41C478.234,477.44 478.337,479.268 478.543,481.894C478.595,482.306 478.724,483.207 478.93,484.597C479.084,485.73 479.161,486.631 479.161,487.301C479.161,489.154 478.234,490.081 476.381,490.081C474.579,490.081 473.678,489 473.678,486.837C473.678,486.271 473.742,485.447 473.871,484.366C473.999,483.284 474.064,482.461 474.064,481.894C474.064,479.68 472.596,478.573 469.661,478.573L466.186,478.573C464.693,478.573 463.779,478.83 463.444,479.345C463.109,479.86 462.942,480.967 462.942,482.666L462.942,487.455C462.942,488.279 462.968,489.386 463.019,490.776C463.071,492.475 463.096,493.608 463.096,494.175C463.148,496.234 463.56,497.521 464.332,498.036C464.899,498.397 466.237,498.577 468.348,498.577L478.852,498.577C481.89,498.577 483.976,498.126 485.108,497.225C486.241,496.324 486.808,494.638 486.808,492.166C486.808,491.394 486.769,490.248 486.692,488.729C486.614,487.21 486.576,486.065 486.576,485.292C486.576,482.975 487.503,481.817 489.356,481.817C491.313,481.817 492.291,483.001 492.291,485.37C492.291,486.297 492.24,487.713 492.137,489.618C492.034,491.523 491.982,492.939 491.982,493.866C491.982,494.586 492.021,495.655 492.098,497.071C492.175,498.487 492.214,499.555 492.214,500.276C492.214,502.696 491.03,503.906 488.661,503.906C488.095,503.906 487.194,503.855 485.958,503.752C485.34,503.7 484.207,503.674 482.56,503.674C482.92,503.674 480.912,503.623 476.535,503.52C472.159,503.417 468.374,503.366 465.182,503.366C460.342,503.366 455.605,503.52 450.97,503.829C450.764,503.829 450.533,503.855 450.275,503.906L449.812,503.906C447.649,503.906 446.568,502.979 446.568,501.126C446.568,499.478 447.366,498.654 448.962,498.654C449.22,498.654 449.915,498.706 451.048,498.809C451.614,498.963 452.155,499.04 452.67,499.04C455.296,499.04 456.609,497.109 456.609,493.248L456.609,462.276Z" style="fill:rgb(10,7,5);fill-rule:nonzero;stroke:white;stroke-width:1.03px;"/>
                </g>
                <g transform="matrix(3.85381,0,0,5.74428,-764.82,-2139.67)">
                    <path d="M524.653,493.325C524.653,497.187 525.966,499.118 528.592,499.118C529.004,499.118 529.622,499.053 530.446,498.924C531.269,498.796 531.887,498.731 532.299,498.731C532.969,498.731 533.548,498.976 534.037,499.465C534.526,499.954 534.771,500.534 534.771,501.203C534.771,503.005 533.612,503.906 531.295,503.906L530.832,503.906C530.574,503.855 530.394,503.829 530.291,503.829L526.507,503.288C525.065,503.082 523.443,502.979 521.641,502.979C519.684,502.979 517.959,503.082 516.466,503.288L512.604,503.829C512.45,503.829 512.269,503.855 512.064,503.906L511.523,503.906C509.257,503.906 508.125,503.005 508.125,501.203C508.125,499.555 508.948,498.731 510.596,498.731C511.008,498.731 511.626,498.796 512.45,498.924C513.274,499.053 513.891,499.118 514.303,499.118C516.878,499.118 518.165,497.187 518.165,493.325L518.165,487.918L518.242,481.122L518.242,474.557L518.165,461.967C518.165,458.312 516.286,456.484 512.527,456.484L510.133,456.484C506.425,456.484 504.572,458.286 504.572,461.89C504.572,463.177 504.597,464.053 504.649,464.516L504.958,467.374C505.009,467.837 505.035,468.481 505.035,469.305C505.035,472.549 504.031,474.171 502.023,474.171C500.118,474.171 499.165,472.986 499.165,470.618C499.165,469.948 499.217,468.79 499.32,467.142C499.474,464.671 499.551,463.1 499.551,462.431C499.551,461.144 499.5,459.805 499.397,458.415C499.191,455.686 499.088,454.527 499.088,454.939C499.088,452.776 500.066,451.695 502.023,451.695C502.744,451.695 504.417,451.772 507.043,451.927C507.301,451.927 509.412,451.978 513.377,452.081L522.181,452.236C523.211,452.236 525.966,452.184 530.446,452.081C531.424,452.081 533.097,452.004 535.466,451.85C537.577,451.695 539.225,451.618 540.409,451.618C542.983,451.618 544.271,452.673 544.271,454.785L544.271,454.939C544.271,455.454 544.206,456.406 544.078,457.797C543.949,459.187 543.807,460.68 543.653,462.276L543.653,463.126C543.653,463.898 543.73,465.108 543.884,466.756C544.09,468.919 544.193,470.257 544.193,470.772C544.193,472.883 543.189,473.939 541.181,473.939C539.225,473.939 538.246,472.652 538.246,470.077C538.246,469.15 538.324,467.773 538.478,465.945C538.632,464.117 538.71,462.74 538.71,461.813C538.71,458.26 536.676,456.484 532.608,456.484L530.446,456.484C528.54,456.484 527.176,456.883 526.352,457.681C525.528,458.479 525.065,459.805 524.962,461.658L524.73,467.065L524.653,493.325Z" style="fill:rgb(10,7,5);fill-rule:nonzero;stroke:white;stroke-width:1.03px;"/>
                </g>
                <g transform="matrix(3.85381,0,0,5.74428,-764.82,-2139.67)">
                    <path d="M571.38,488.15L571.38,486.683C571.329,485.859 571.303,485.164 571.303,484.597L556.319,460.886C555.341,459.341 554.723,458.44 554.466,458.183C553.693,457.411 552.741,457.024 551.608,457.024C550.99,457.024 550.527,457.05 550.218,457.102L549.523,457.102C549.162,457.153 548.905,457.179 548.75,457.179C546.382,457.179 545.197,456.278 545.197,454.476C545.197,452.622 546.227,451.695 548.287,451.695C549.111,451.695 550.141,451.798 551.376,452.004C553.848,452.416 556.165,452.622 558.327,452.622C559.924,452.622 562.318,452.39 565.51,451.927C566.592,451.772 567.518,451.695 568.291,451.695C570.402,451.695 571.457,452.596 571.457,454.398C571.457,456.149 570.196,457.024 567.673,457.024L566.901,456.947L564.97,456.947L563.425,456.87C562.807,456.818 562.498,457.024 562.498,457.488C562.498,457.694 562.524,457.835 562.575,457.913C562.627,457.99 562.756,458.209 562.962,458.569L574.779,478.65L586.75,458.569C587.008,458.157 587.136,457.745 587.136,457.333C587.136,456.87 586.802,456.638 586.132,456.638L585.978,456.638L584.587,456.715L582.579,456.947C581.704,457.05 581.035,457.102 580.571,457.102C578.46,457.102 577.405,456.201 577.405,454.398C577.405,452.596 578.434,451.695 580.494,451.695C581.266,451.695 582.193,451.772 583.274,451.927C586.158,452.339 588.655,452.545 590.766,452.545C592.98,452.545 595.426,452.339 598.104,451.927C599.133,451.772 600.009,451.695 600.73,451.695C602.686,451.695 603.665,452.596 603.665,454.398C603.665,456.046 602.712,456.87 600.807,456.87C600.035,456.87 599.442,456.818 599.03,456.715C598.207,456.612 597.64,456.561 597.331,456.561C595.993,456.561 594.911,457.179 594.087,458.415L592.929,460.191L577.714,484.057L577.714,487.301C577.714,492.553 577.932,495.822 578.37,497.109C578.808,498.397 579.902,499.04 581.653,499.04C582.064,499.04 582.695,498.976 583.545,498.847C584.394,498.719 585.025,498.654 585.437,498.654C587.033,498.654 587.831,499.478 587.831,501.126C587.831,502.979 586.673,503.906 584.356,503.906L583.892,503.906C583.686,503.855 583.506,503.829 583.352,503.829L579.104,503.288C577.508,503.082 575.937,502.979 574.392,502.979C572.745,502.979 571.174,503.082 569.681,503.288L565.742,503.829C565.639,503.829 565.485,503.855 565.279,503.906L564.738,503.906C562.421,503.906 561.262,503.005 561.262,501.203C561.262,499.504 562.086,498.654 563.734,498.654C564.146,498.654 564.751,498.719 565.549,498.847C566.347,498.976 566.952,499.04 567.364,499.04C569.527,499.04 570.84,497.676 571.303,494.947C571.354,494.483 571.38,492.218 571.38,488.15Z" style="fill:rgb(10,7,5);fill-rule:nonzero;stroke:white;stroke-width:1.03px;"/>
                </g>
            </g>
        </g>
    </g>
</svg>
